<?xml version="1.0" encoding="UTF-8"?>
<svg viewBox="0 0 446.71402 671.22131" xmlns="http://www.w3.org/2000/svg" xmlns:xlink="http://www.w3.org/1999/xlink">
 <defs>
  <filter id="bd">
   <feGaussianBlur stdDeviation=".69129"/>
  </filter>
  <filter id="j">
   <feGaussianBlur stdDeviation=".20156"/>
  </filter>
  <filter id="k">
   <feGaussianBlur stdDeviation=".33676"/>
  </filter>
  <filter id="bc" x="-.12205" y="-.00631" width="1.2441" height="1.0126">
   <feGaussianBlur stdDeviation=".21083"/>
  </filter>
  <filter id="be" x="-.11972" y="-.01765" width="1.2394" height="1.0353">
   <feGaussianBlur stdDeviation=".9826"/>
  </filter>
  <filter id="l" x="-.10762" y="-.01351" width="1.2152" height="1.027">
   <feGaussianBlur stdDeviation=".9469"/>
  </filter>
  <linearGradient id="an" x1="411.47" x2="418.5" y1="438.4" y2="441" gradientUnits="userSpaceOnUse">
   <stop stop-color="#26252a" offset="0"/>
   <stop stop-color="#26252a" stop-opacity="0" offset="1"/>
  </linearGradient>
  <linearGradient id="f">
   <stop stop-color="#e6e4df" offset="0"/>
   <stop stop-color="#e6e4df" stop-opacity="0" offset="1"/>
  </linearGradient>
  <linearGradient id="e">
   <stop stop-color="#3e3e3e" offset="0"/>
   <stop stop-color="#e6e4df" stop-opacity="0" offset="1"/>
  </linearGradient>
  <linearGradient id="a">
   <stop stop-color="#ccc" offset="0"/>
   <stop stop-color="#ccc" stop-opacity="0" offset="1"/>
  </linearGradient>
  <linearGradient id="d">
   <stop stop-color="#666" offset="0"/>
   <stop stop-color="#666" stop-opacity="0" offset="1"/>
  </linearGradient>
  <linearGradient id="b">
   <stop offset="0"/>
   <stop stop-opacity="0" offset="1"/>
  </linearGradient>
  <linearGradient id="ar" x2="0" y1="788.37" y2="835.45" gradientUnits="userSpaceOnUse">
   <stop stop-color="#808080" offset="0"/>
   <stop stop-color="#808080" stop-opacity="0" offset="1"/>
  </linearGradient>
  <linearGradient id="c">
   <stop stop-color="#fff" offset="0"/>
   <stop stop-color="#fff" stop-opacity="0" offset="1"/>
  </linearGradient>
  <linearGradient id="h">
   <stop offset="0"/>
   <stop stop-color="#1a1a1a" offset="1"/>
  </linearGradient>
  <linearGradient id="i">
   <stop stop-color="#fff" offset="0"/>
   <stop stop-color="#1a1a1a" offset="1"/>
  </linearGradient>
  <linearGradient id="g">
   <stop stop-color="#b3b3b3" offset="0"/>
   <stop stop-color="#fff" stop-opacity="0" offset="1"/>
  </linearGradient>
  <linearGradient id="ao" x1="-7723.2" x2="-7708.3" y1="174.09" y2="178.02" gradientTransform="matrix(-1.7987 -.35019 -.2199 2.8644 -13294 -2419.4)" gradientUnits="userSpaceOnUse" xlink:href="#b"/>
  <linearGradient id="ap" x1="82.618" x2="125.47" y1="779.3" y2="790.65" gradientUnits="userSpaceOnUse" xlink:href="#b"/>
  <linearGradient id="aq" x1="107.84" x2="142.73" y1="549.94" y2="552.58" gradientUnits="userSpaceOnUse" xlink:href="#b"/>
  <linearGradient id="as" x1="-7684.8" x2="-7702.7" y1="120.74" y2="150.24" gradientTransform="matrix(-2.9366 .16391 .16707 2.8811 -22417 1539.6)" gradientUnits="userSpaceOnUse" xlink:href="#c"/>
  <linearGradient id="at" x1="-7748.5" x2="-7685.4" y1="114.39" y2="122.52" gradientTransform="matrix(-2.9413 0 0 2.8858 -22432 276.91)" gradientUnits="userSpaceOnUse" xlink:href="#c"/>
  <linearGradient id="au" x1="-7819.8" x2="-7821.8" y1="96.649" y2="96.623" gradientTransform="matrix(1.8702 -.01882 -.03017 -2.8856 14847 704.31)" gradientUnits="userSpaceOnUse" xlink:href="#h"/>
  <linearGradient id="av" x1="-7819.8" x2="-7821.8" y1="96.649" y2="96.623" gradientTransform="matrix(-1.8702 .01882 .03017 2.8856 -14415 429.92)" gradientUnits="userSpaceOnUse" xlink:href="#i"/>
  <linearGradient id="aw" x1="-7684.8" x2="-7702.7" y1="120.74" y2="150.24" gradientTransform="matrix(2.8811 .16391 -.16391 2.8811 22650 1539.6)" gradientUnits="userSpaceOnUse" xlink:href="#c"/>
  <linearGradient id="ax" x1="494.59" x2="488.68" y1="800.64" y2="826.07" gradientUnits="userSpaceOnUse" xlink:href="#d"/>
  <linearGradient id="ay" x1="304.02" x2="486.11" y1="607" y2="630.46" gradientUnits="userSpaceOnUse" xlink:href="#c"/>
  <linearGradient id="az" x1="440.48" x2="439.94" y1="460.75" y2="450.02" gradientUnits="userSpaceOnUse" xlink:href="#b"/>
  <linearGradient id="ba" x1="-7819.8" x2="-7821.8" y1="96.649" y2="96.623" gradientTransform="matrix(-1.8348 -.01882 .0296 -2.8856 -13915 698.54)" gradientUnits="userSpaceOnUse" xlink:href="#h"/>
  <linearGradient id="bb" x1="-7819.8" x2="-7821.8" y1="96.649" y2="96.623" gradientTransform="matrix(1.8348 .01882 -.0296 2.8856 14794 424.15)" gradientUnits="userSpaceOnUse" xlink:href="#i"/>
  <radialGradient id="p" cx="-7640.8" cy=".81205" r="18.418" gradientTransform="matrix(1.6728 -6.991 3.7865 .906 13099 -53155)" gradientUnits="userSpaceOnUse">
   <stop stop-color="#1a1a1a" offset="0"/>
   <stop stop-color="#ccc" stop-opacity="0" offset="1"/>
  </radialGradient>
  <radialGradient id="t" cx="-7636" cy="24.05" r="3.9688" gradientTransform="matrix(-3.2947 .52265 -.0717 -.45198 -24828 4342.5)" gradientUnits="userSpaceOnUse">
   <stop stop-color="#e6e6e6" offset="0"/>
   <stop stop-color="#808080" stop-opacity="0" offset="1"/>
  </radialGradient>
  <radialGradient id="u" cx="-7635.7" cy="21.066" r="3.8926" gradientTransform="matrix(5.1199 .15973 -.01232 .39495 39429 1552.9)" gradientUnits="userSpaceOnUse">
   <stop stop-color="#333" offset="0"/>
   <stop stop-color="#ececec" stop-opacity="0" offset="1"/>
  </radialGradient>
  <radialGradient id="v" cx="-7626.3" cy="43.27" r="13.044" gradientTransform="matrix(-3.9978 -2.1305 3.9613 -7.4333 -30342 -15530)" gradientUnits="userSpaceOnUse">
   <stop stop-color="#333" offset="0"/>
   <stop stop-color="#333" stop-opacity="0" offset="1"/>
  </radialGradient>
  <radialGradient id="z" cx="-5477.5" cy="-5730" r="2.0603" gradientTransform="matrix(9.4874 4.7765 -1.506 5.7099 42646 59381)" gradientUnits="userSpaceOnUse">
   <stop offset="0"/>
   <stop stop-color="#26252a" offset="1"/>
  </radialGradient>
  <radialGradient id="m" cx="-7640.7" cy="-13.334" r="18.399" gradientTransform="matrix(9.7519 -.00041246 -5.7109e-5 -2.3687 74844 204.44)" gradientUnits="userSpaceOnUse" xlink:href="#f"/>
  <radialGradient id="n" cx="-7640.7" cy="-13.334" r="18.399" gradientTransform="matrix(9.7436 .00051511 -5.7061e-5 2.9582 74780 268.77)" gradientUnits="userSpaceOnUse" xlink:href="#e"/>
  <radialGradient id="o" cx="-7640.7" cy="-10.042" r="18.399" gradientTransform="matrix(9.7436 .00070911 -6.7491e-5 5.2871 74780 293.63)" gradientUnits="userSpaceOnUse" xlink:href="#e"/>
  <radialGradient id="q" cx="-5477.5" cy="-5730" r="2.0603" gradientTransform="matrix(4.7718 3.0083 -.75745 3.5961 21845 36305)" gradientUnits="userSpaceOnUse" xlink:href="#a"/>
  <radialGradient id="r" cx="-5477.5" cy="-5730" r="2.0603" gradientTransform="matrix(4.7718 3.0083 -.75745 3.5961 21815 36364)" gradientUnits="userSpaceOnUse" xlink:href="#a"/>
  <radialGradient id="s" cx="-5477.5" cy="-5730" r="2.0603" gradientTransform="matrix(4.7718 3.0083 -.75745 3.5961 21781 36424)" gradientUnits="userSpaceOnUse" xlink:href="#a"/>
  <radialGradient id="w" cx="-7635.4" cy="8.0917" r="9.6753" gradientTransform="matrix(-4.6943 -.0001491 9.4658e-5 -2.9801 -35509 364.21)" gradientUnits="userSpaceOnUse" xlink:href="#d"/>
  <radialGradient id="x" cx="-7635.4" cy="17.767" r="9.6753" gradientTransform="matrix(-4.6943 -.0001491 9.4658e-5 -2.9801 -35509 364.21)" gradientUnits="userSpaceOnUse" xlink:href="#d"/>
  <radialGradient id="y" cx="-5477.5" cy="-5730" r="2.0603" gradientTransform="matrix(5.382 3.5612 -.8543 4.257 24600 43219)" gradientUnits="userSpaceOnUse" xlink:href="#a"/>
  <radialGradient id="aa" cx="-5477.5" cy="-5730" r="2.0603" gradientTransform="matrix(4.8864 1.8739 -.77564 2.24 22140 24059)" gradientUnits="userSpaceOnUse" xlink:href="#a"/>
  <radialGradient id="ab" cx="-5477.5" cy="-5730" r="2.0603" gradientTransform="matrix(4.3964 1.6021 -.69787 1.9151 20420 20631)" gradientUnits="userSpaceOnUse" xlink:href="#a"/>
  <radialGradient id="ac" cx="-5477.5" cy="-5730" r="2.0603" gradientTransform="matrix(4.8218 1.7121 -.76538 2.0467 22172 22014)" gradientUnits="userSpaceOnUse" xlink:href="#a"/>
  <radialGradient id="ad" cx="-5477.5" cy="-5730" r="2.0603" gradientTransform="matrix(4.985 1.8166 -.7913 2.1715 22894 23309)" gradientUnits="userSpaceOnUse" xlink:href="#a"/>
  <radialGradient id="ae" cx="-5477.5" cy="-5730" r="2.0603" gradientTransform="matrix(4.8864 1.8739 -.77564 2.24 21747 23726)" gradientUnits="userSpaceOnUse" xlink:href="#a"/>
  <radialGradient id="af" cx="-5477.5" cy="-5730" r="2.0603" gradientTransform="matrix(4.3964 1.6021 -.69787 1.9151 19851 20500)" gradientUnits="userSpaceOnUse" xlink:href="#a"/>
  <radialGradient id="ag" cx="-5477.5" cy="-5730" r="2.0603" gradientTransform="matrix(4.8218 1.7121 -.76538 2.0467 21703 21838)" gradientUnits="userSpaceOnUse" xlink:href="#a"/>
  <radialGradient id="ah" cx="-5477.5" cy="-5730" r="2.0603" gradientTransform="matrix(4.985 1.8166 -.7913 2.1715 22369 23040)" gradientUnits="userSpaceOnUse" xlink:href="#a"/>
  <radialGradient id="ai" cx="-7720.3" cy="45.081" r="17.508" gradientTransform="matrix(-1.5668 -8.4528 -12.832 2.9684 -11235 -64914)" gradientUnits="userSpaceOnUse" xlink:href="#a"/>
  <radialGradient id="aj" cx="-7714.5" cy="51.477" r="17.508" gradientTransform="matrix(-2.6064 -1.285 5.7972 -11.759 -20004 -8912.8)" gradientUnits="userSpaceOnUse" xlink:href="#a"/>
  <radialGradient id="ak" cx="-7608" cy="-24.603" r="28.25" gradientTransform="matrix(-.56183 -.56183 2.043 -2.043 -3918 -3973.1)" gradientUnits="userSpaceOnUse" xlink:href="#g"/>
  <radialGradient id="al" cx="-7608" cy="-24.603" r="28.25" gradientTransform="matrix(-.56183 -.56183 2.043 -2.043 -4191.3 -3797.3)" gradientUnits="userSpaceOnUse" xlink:href="#g"/>
  <radialGradient id="am" cx="-7633.9" cy="181.83" r="25.942" gradientTransform="matrix(.27533 -8.8883 2.6464 .08197 1953 -67035)" gradientUnits="userSpaceOnUse" xlink:href="#f"/>
 </defs>
 <g transform="translate(-100.54 -215.32)">
  <path d="m278.42 279.82c0.8794-1.9326 0.6232-25.118 0.6232-25.118 38.541-21.724 74.874-24.049 106.42-3.8202l-8.3785 28.448c-42.758 32.921-76.799 16.61-98.617 0.49164z" fill="#333"/>
  <path d="m278.94 254.69c0.41547-2.3024-0.20773-13.194 0.20774-17.429 0.13848-0.89948 4.0162 0.42238 4.4316 0.0762 24.942-20.946 86.029-25.761 96.63-3.1395 0.55395 1.1702 4.6394-2.1009 4.8609-0.75753 0.27697 1.8218 0.20773 14.82 0.13849 17.384-5.4287 16.839-26.52 21.691-54.703 21.412-22.975-0.2285-34.089-3.8929-51.483-17.537z" fill="#808080"/>
  <path d="m407.26 850.4c-45.895 11.323-95.674 12.13-149.73 1.4721 0 0 10.823-127.78 12.166-128.37 1.3572-0.58858 120.32-1.4721 120.32-1.4721l17.242 128.37z" fill="#1c1b20"/>
  <path d="m407.26 850.4c-45.895 11.323-95.674 12.13-149.73 1.4721 0 0 10.823-127.78 12.166-128.37 1.3572-0.58858 120.32-1.4721 120.32-1.4721l17.242 128.37z" fill="url(#am)" opacity=".17391"/>
  <path d="m252.01 298.16h163.04v115.43h-163.04z" fill="#fff" opacity=".81739"/>
  <path transform="matrix(.78511,-.61935,.61935,.78511,0,0)" d="m-24.916 469.59h163.04v115.43h-163.04z" fill="url(#al)" opacity=".21739"/>
  <path d="m248.4 293.83h163.04v115.43h-163.04z" fill="url(#ak)" opacity=".21739"/>
  <path d="m279.84 257.68c-10.504 24.737 7.2637 61.658 3.3653 95.67 10.4-17.951 22.193-37.993 44.192-55.64l10.227-0.0762c29.193 9.8839 26.624 29.904 39.912 44.865 0-29.237 5.7888-57.305 7.9146-91.846-5.9134 11.06-2.6244 18.904-47.958 45.673l-9.7426-0.36006c-26.14-15.106-45.348-23.422-47.91-38.316z" fill="#b3b3b3" opacity=".67391"/>
  <path d="m511.55 833.5c0.75476 4.6463 3.8223 9.7946-1.0248 13.263l-85.828 36.193c-8.7178 1.6605-14.874-0.93826-19.271-6.4875-67.831-178.11-52.909-336.69-32.482-498.13 4.7571-37.62 5.7126-79.489 10.671-117.12 5.7334 9.6817 13.8 20.306 23.848 26.566 36.512 13.717 76.217 23.339 94.954 35.4 10.553-2.1334 9.9711 3.2642 12.305 5.8899 3.7253 18.174 1.8419 36.106 4.9856 59.587 10.137 60.255 28.127 91.723 19.125 228.28 13.911 70.506-3.9746 123.13 8.4201 199.21l-38.313-0.32544 2.6036 17.666z" fill="#26252a"/>
  <path transform="matrix(2.8858 0 0 2.8858 23928 276.91)" d="m-8117.8 16.1c-3.5915 13.722-7.3705 28.001-9.6174 41.012-6.2003 41.699-3.3574 85.07-11.5 127.25 8.218-34.163 13.986-62.457 13.25-131.5 3.9345-10.39 5.3455-24.439 7.8674-36.762z" filter="url(#l)" opacity=".3087"/>
  <path d="m441.59 486.12c0.55395 51.011-0.9071 101.18-4.4662 150.45l4.4662-150.45z" fill="url(#bb)" opacity=".16957"/>
  <path d="m437.1 636.57c-0.55396-51.011 0.91402-101.18 4.4662-150.45l-4.4662 150.45z" fill="url(#ba)" opacity=".35217"/>
  <path transform="matrix(.998,-.06328,.06328,.998,0,0)" d="m330.07 631.77h3.6072a6.1322 2.1643 0 0 1 6.1322 2.1643v1.4429a6.1322 2.1643 0 0 1 -6.1322 2.1643h-3.6072a6.1322 2.1643 0 0 1 -6.1322 -2.1643v-1.4429a6.1322 2.1643 0 0 1 6.1322 -2.1643" fill="#1a1a1a" opacity=".42609"/>
  <path transform="matrix(.99953,-.03078,.12948,.99158,0,0)" d="m288.87835,625.43689h2.96747a5.0447,.87151 0 0,1 5.0447.87151v.58101a5.0447,.87151 0 0,1 -5.0447.87151h-2.96747a5.0447,.87151 0 0,1 -5.0447-.87151v-.58101a5.0447,.87151 0 0,1 5.0447-.87151" fill="#fff" opacity=".1087"/>
  <path d="m460.59 454.17c-14.243-3.2302-31.714 1.2949-49.509 6.5823l49.509-6.5823z" fill="url(#az)" opacity=".39565"/>
  <path transform="matrix(2.8858 0 0 2.8858 23928 276.91)" d="m-8167.1 107.67c12.156-27.949 23.493-58.556 33.764-92.631-0.092-1.1646-0.3803-1.9696-1.8918-2.3499-4.8729 1.4302-8.9537 2.8764-12.427 4.4712-1.7125 1.0643-1.423 0.12657-1.9446 0l-10.518-10.607c-3.674 33.698-7.9645 67.64-6.9826 101.12z" filter="url(#k)" opacity=".16087"/>
  <path d="m357.13 586.95c31.762-82.694 66.883-169.91 100.35-266.2-0.20773-3.3618-1.3572-4.6234-5.7126-5.7202-14.063 4.1269-24.263 7.0248-34.283 11.627-4.944 3.0717-8.1639 1.0435-9.6665 0.67859l-25.683-30.652c-10.255 97.68-29.616 196.3-25.004 290.26z" fill="#26252a"/>
  <path d="m446.07 800.64-2.9706 12.715c31.014 4.1373 49.793 12.694 90.447 12.716-0.8517-0.76515 0.74784-10.1 0.74784-10.1-29.63-3.0204-58.546-6.565-88.189-15.331z" fill="#f9f9f9"/>
  <path d="m446.07 800.64 37.156-368.65 21.639-77.915 21.286 461-80.081-14.428z" fill="url(#ay)" opacity=".4913"/>
  <path d="m446.07 800.64-2.9706 12.715c31.014 4.1373 49.793 12.694 90.447 12.716-0.8517-0.76515 0.74784-10.1 0.74784-10.1-29.63-3.0204-58.546-6.565-88.189-15.331z" fill="url(#ax)"/>
  <path d="m430.7 657.82 0.88633 41.6c0.75476 3.834 3.4691 6.7153 9.2926 8.1161l12.561 1.4375 4.7848-46.036-27.525-5.1171z" fill="#1a1a1a" opacity=".33043"/>
  <path transform="matrix(2.6941 .15327 -.16391 2.8811 21210 1458.3)" d="m-7704 130.73 1.125 14.375c0.333 1.312 1.335 2.2548 3.375 2.625l4.375 0.25 0.75-16.021-9.625-1.2286z" fill="#fff" filter="url(#j)" opacity=".03913"/>
  <path d="m432.69 655.68 0.8794 41.6c0.75476 3.8347 3.476 6.7153 9.2995 8.1161l12.568 1.4382 4.8402-47.055-27.587-4.0986z" fill="#26252a"/>
  <path d="m432.69 655.68 0.8794 41.6c0.75476 3.8347 3.476 6.7153 9.2995 8.1161l12.568 1.4382 4.8402-47.055-27.587-4.0986z" fill="url(#aw)" opacity=".0913"/>
  <path d="m457.37 659.25c-1.4749 15.561-3.5314 32.914-5.1933 47.134l3.0952 0.38084 5.0133-46.99-2.9152-0.52626z" opacity=".22174"/>
  <path d="m357.13 586.95c31.762-82.694 66.883-169.91 100.35-266.2-0.20773-3.3618-1.3572-4.6234-5.7126-5.7202-14.063 4.1269-24.263 7.0248-34.283 11.627-4.944 3.0717-8.1639 1.0435-9.6665 0.67859l-25.683-30.652c-10.255 97.68-29.616 196.3-25.004 290.26z" fill="url(#aj)" opacity=".09565"/>
  <path d="m147.91 833.5c-0.75476 4.6463-3.8984 9.7946 1.0387 13.263l90.35 39.127c8.884 1.6598 18.613 0.27006 23.079-5.2764 69.147-178.11 47.619-340.83 26.811-502.27-4.854-37.62-5.8373-79.489-10.885-117.12-5.8373 9.6817-14.07 20.306-24.312 26.566-37.212 13.717-77.678 23.339-96.775 35.4-10.165 1.4181-10.144 3.3722-12.547 5.8899-3.7946 18.174-1.8696 36.106-5.0825 59.587-25.468 133.02-16.632 239.73-23.349 360.15-1.6342 20.879-11.64 41.402-15.691 65.806l50.022 1.2083-2.659 17.667z" fill="#26252a"/>
  <path transform="matrix(-2.9413 0 0 2.8858 -22137 276.91)" d="m-7579.8 16.1c-3.5915 13.722-7.3705 28.001-9.6174 41.012-6.2003 41.699-3.3574 85.07-11.5 127.25 8.218-34.163 13.986-62.457 13.25-131.5 3.9345-10.39 5.3455-24.439 7.8674-36.762z" filter="url(#l)" opacity=".3087"/>
  <path d="m213.44 491.89c-0.55395 51.013 0.92095 101.18 4.5493 150.45l-4.5493-150.45z" fill="url(#av)" opacity=".06957"/>
  <path d="m218.01 642.34c0.55395-51.012-0.91403-101.18-4.5424-150.45l4.5424 150.45z" fill="url(#au)" opacity=".37826"/>
  <path transform="matrix(-2.9413 0 0 2.8858 -22137 276.91)" d="m-7629.8 108.36c14.956-13.92 17.108-48.648 34.5-93.318-0.092-1.1646-0.3803-1.9696-1.8918-2.3499-4.8729 1.4302-8.9537 2.8764-12.427 4.4712-1.7125 1.0643-1.423 0.12657-1.9446 0l-10.518-10.607c-3.674 33.698-8.7003 68.327-7.7184 101.8z" filter="url(#k)" opacity=".16087"/>
  <path d="m305.3 586.95c-32.372-82.694-65.913-168.47-100.02-264.76 0.27697-3.3611 1.648-3.1804 6.0935-4.2772 14.327 4.1269 22.207 4.1394 32.42 8.7414 5.034 3.0717 8.3162 1.0435 9.8465 0.67859l26.188-30.652c10.449 97.68 30.177 196.3 25.475 290.26z" fill="#26252a"/>
  <path d="m214.38 800.64c-26.437-120.99-30.211-234.1-37.87-368.65l-22.061-77.915-21.694 461 81.625-14.428z" fill="url(#at)" opacity=".4913"/>
  <path d="m228.83 656.11 3.4622 42.683c-0.87939 3.834-2.6659 7.3461-9.5418 8.7469l-14.839 1.4375-5.6572-46.036 32.531-5.1171-5.955-1.7131z" fill="#1a1a1a" opacity=".47391"/>
  <path transform="matrix(-2.746 .15327 .16707 2.8811 -20949 1458.3)" d="m-7704 130.73 1.125 14.375c0.333 1.312 1.335 2.2548 3.375 2.625l4.375 0.25 0.75-16.021-9.625-1.2286z" fill="#fff" filter="url(#j)" opacity=".03913"/>
  <path d="m228.28 655.68-0.88632 41.6c-0.76169 3.8347-3.5453 6.7153-9.4795 8.1161l-12.796 1.4382-4.951-47.055 28.127-4.0986z" fill="#26252a"/>
  <path d="m228.28 655.68-0.88632 41.6c-0.76169 3.8347-3.5453 6.7153-9.4795 8.1161l-12.796 1.4382-4.951-47.055 28.127-4.0986z" fill="url(#as)" opacity=".0913"/>
  <path d="m203.13 659.25c1.4957 15.561 3.6007 32.914 5.2902 47.134l-3.1506 0.38084-5.1102-46.99 2.9706-0.52626z" opacity=".22174"/>
  <path d="m305.3 586.95c-32.372-82.694-67.181-169.46-101.29-265.75 0.27698-3.3604 0.34622-3.089 4.8332-4.1865 14.334 4.127 24.734 5.041 34.947 9.6429 5.034 3.0717 8.3162 1.0435 9.8465 0.67859l26.188-30.652c10.449 97.68 30.177 196.3 25.475 290.26z" fill="url(#ai)" opacity=".09565"/>
  <path d="m214.65 800.64 3.026 12.715c-31.61 4.1373-52.916 17.744-92.185 22.095 0.86555-0.76514-0.75476-19.479-0.75476-19.479 30.211-3.0204 59.688-6.565 89.893-15.331z" fill="#f9f9f9"/>
  <path d="m214.65 800.64 3.026 12.715c-31.61 4.1373-52.916 17.744-92.185 22.095 0.86555-0.76514-0.75476-19.479-0.75476-19.479 30.211-3.0204 59.688-6.565 89.893-15.331z" fill="url(#ar)"/>
  <path d="m133.08 815.57c3.3445-0.32544 6.5782-1.2838 6.8205 1.1404 0.20773 2.4242-2.2643 4.64-5.6157 4.969s-6.232-1.3593-6.4743-3.7835c-0.20773-2.4242 1.9181-1.997 5.2695-2.3252z" opacity=".8087" stroke="#808080" stroke-width="1.1543"/>
  <path d="m142.73 335.61c-0.83093 16.735-0.55396 33.293-2.9429 49.349-8.337 55.523-22.338 192.04-22.567 360.8l25.51-7.1425v-403z" fill="url(#aq)" opacity=".47391"/>
  <path d="m126.24 811.82c2.1673-21.386-3.0398-44.114-8.1639-66.827l-16.833 68.613 24.997-1.7851z" fill="url(#ap)" opacity=".68696"/>
  <path transform="matrix(.76212,-.64744,.64744,.76212,0,0)" d="m-398.89 646.61a5.9456 3.6746 0 0 1 5.9456 3.6746 5.9456 3.6746 0 0 1 -5.9456 3.6746 5.9456 3.6746 0 0 1 -5.9455 -3.6746 5.9456 3.6746 0 0 1 5.9455 -3.6746" fill="#1a1a1a"/>
  <path transform="matrix(.76212,-.64744,.64744,.76212,0,0)" d="m-398.89 646.61a5.9456 3.6746 0 0 1 5.9456 3.6746 5.9456 3.6746 0 0 1 -5.9456 3.6746 5.9456 3.6746 0 0 1 -5.9455 -3.6746 5.9456 3.6746 0 0 1 5.9455 -3.6746" fill="url(#ah)" opacity=".46957"/>
  <path transform="matrix(.88744,-.46093,.5415,.8407,0,0)" d="m-320.05 732.58a5.7508 3.4633 0 0 1 5.7508 3.4633 5.7508 3.4633 0 0 1 -5.7508 3.4633 5.7508 3.4633 0 0 1 -5.7508 -3.4633 5.7508 3.4633 0 0 1 5.7508 -3.4633" fill="#1a1a1a"/>
  <path transform="matrix(.88744,-.46093,.5415,.8407,0,0)" d="m-320.05 732.58a5.7508 3.4633 0 0 1 5.7508 3.4633 5.7508 3.4633 0 0 1 -5.7508 3.4633 5.7508 3.4633 0 0 1 -5.7508 -3.4633 5.7508 3.4633 0 0 1 5.7508 -3.4633" fill="url(#ag)" opacity=".46957"/>
  <path transform="matrix(.90539,-.42458,.42458,.90539,0,0)" d="m-229.39 750.68a5.2436 3.2407 0 0 1 5.2436 3.2407 5.2436 3.2407 0 0 1 -5.2436 3.2407 5.2436 3.2407 0 0 1 -5.2436 -3.2407 5.2436 3.2407 0 0 1 5.2436 -3.2407" fill="#1a1a1a"/>
  <path transform="matrix(.90539,-.42458,.42458,.90539,0,0)" d="m-229.39 750.68a5.2436 3.2407 0 0 1 5.2436 3.2407 5.2436 3.2407 0 0 1 -5.2436 3.2407 5.2436 3.2407 0 0 1 -5.2436 -3.2407 5.2436 3.2407 0 0 1 5.2436 -3.2407" fill="url(#af)" opacity=".46957"/>
  <path transform="matrix(.68786,-.72584,.79971,.60039,0,0)" d="m-570.89 626.39a5.8279 3.7905 0 0 1 5.8279 3.7905 5.8279 3.7905 0 0 1 -5.8279 3.7905 5.8279 3.7905 0 0 1 -5.8279 -3.7905 5.8279 3.7905 0 0 1 5.8279 -3.7905" fill="#1a1a1a"/>
  <path transform="matrix(.68786,-.72584,.79971,.60039,0,0)" d="m-570.89 626.39a5.8279 3.7905 0 0 1 5.8279 3.7905 5.8279 3.7905 0 0 1 -5.8279 3.7905 5.8279 3.7905 0 0 1 -5.8279 -3.7905 5.8279 3.7905 0 0 1 5.8279 -3.7905" fill="url(#ae)" opacity=".46957"/>
  <path d="m529.59 810.81c0.27698-21.493 5.2626-43.421 10.186-65.344l5.2626 70.149-15.448-4.8055z" fill="url(#ao)" opacity=".68696"/>
  <path transform="matrix(.88472,-.46613,.46613,.88472,0,0)" d="m126.07 916.06a5.9456 3.6746 0 0 1 5.9455 3.6746 5.9456 3.6746 0 0 1 -5.9455 3.6746 5.9456 3.6746 0 0 1 -5.9455 -3.6746 5.9456 3.6746 0 0 1 5.9455 -3.6746" fill="#1a1a1a"/>
  <path transform="matrix(.88472,-.46613,.46613,.88472,0,0)" d="m126.07 916.06a5.9456 3.6746 0 0 1 5.9455 3.6746 5.9456 3.6746 0 0 1 -5.9455 3.6746 5.9456 3.6746 0 0 1 -5.9455 -3.6746 5.9456 3.6746 0 0 1 5.9455 -3.6746" fill="url(#ad)" opacity=".46957"/>
  <path transform="matrix(.93588,-.35233,.43787,.89904,0,0)" d="m149.55 908.57a5.7508 3.4633 0 0 1 5.7508 3.4633 5.7508 3.4633 0 0 1 -5.7508 3.4633 5.7508 3.4633 0 0 1 -5.7508 -3.4633 5.7508 3.4633 0 0 1 5.7508 -3.4633" fill="#1a1a1a"/>
  <path transform="matrix(.93588,-.35233,.43787,.89904,0,0)" d="m149.55 908.57a5.7508 3.4633 0 0 1 5.7508 3.4633 5.7508 3.4633 0 0 1 -5.7508 3.4633 5.7508 3.4633 0 0 1 -5.7508 -3.4633 5.7508 3.4633 0 0 1 5.7508 -3.4633" fill="url(#ac)" opacity=".46957"/>
  <path transform="matrix(.972,-.235,.235,.972,0,0)" d="m340.35 882.25a5.2436 3.2407 0 0 1 5.2436 3.2407 5.2436 3.2407 0 0 1 -5.2436 3.2407 5.2436 3.2407 0 0 1 -5.2436 -3.2407 5.2436 3.2407 0 0 1 5.2436 -3.2407" fill="#1a1a1a"/>
  <path transform="matrix(.972,-.235,.235,.972,0,0)" d="m340.35 882.25a5.2436 3.2407 0 0 1 5.2436 3.2407 5.2436 3.2407 0 0 1 -5.2436 3.2407 5.2436 3.2407 0 0 1 -5.2436 -3.2407 5.2436 3.2407 0 0 1 5.2436 -3.2407" fill="url(#ab)" opacity=".46957"/>
  <path transform="matrix(.78512,-.61934,.70502,.70919,0,0)" d="m-177.89 959.26a5.8279 3.7905 0 0 1 5.8279 3.7905 5.8279 3.7905 0 0 1 -5.8279 3.7905 5.8279 3.7905 0 0 1 -5.8279 -3.7905 5.8279 3.7905 0 0 1 5.8279 -3.7905" fill="#1a1a1a"/>
  <path transform="matrix(.78512,-.61934,.70502,.70919,0,0)" d="m-177.89 959.26a5.8279 3.7905 0 0 1 5.8279 3.7905 5.8279 3.7905 0 0 1 -5.8279 3.7905 5.8279 3.7905 0 0 1 -5.8279 -3.7905 5.8279 3.7905 0 0 1 5.8279 -3.7905" fill="url(#aa)" opacity=".46957"/>
  <path d="m187.32 634.91c3.2683-27.443 2.5966-55.883-0.75476-85.07-0.20773-2.1473 0.7963-8.0309 0.55395-10.145-0.8794-5.9723-2.9983-7.2007-4.1754-13.227l4.4593 108.44z" fill="#e6e4df" opacity=".26957"/>
  <path d="m279.84 257.68c1.4056 26 6.3566 58.412 6.2458 89.9 10.352-17.858 27.961-45.022 41.041-47.537l11.488-0.0762c24.526 2.9304 25.994 22.889 37.295 40.373 0.92787-30.679 4.3416-61.092 9.5418-89.683-5.7334 14.307-5.3249 23.955-47.958 45.675l-9.3826-0.18003c-25.96-11.5-45.708-23.602-48.27-38.497z" fill="#fff" opacity=".97391"/>
  <path transform="matrix(-.79225,.61019,-.44183,-.8971,0,0)" d="m4.2345-683.96a6.4122 7.3501 0 0 1 6.4122 7.3501 6.4122 7.3501 0 0 1 -6.4122 7.3501 6.4122 7.3501 0 0 1 -6.4122 -7.3501 6.4122 7.3501 0 0 1 6.4122 -7.3501" opacity=".59565"/>
  <path transform="matrix(-.93177,-.36305,-.69757,.71652,0,0)" d="m-686.04 499.72a11.315 9.6621 0 0 1 11.315 9.6621 11.315 9.6621 0 0 1 -11.315 9.6621 11.315 9.6621 0 0 1 -11.315 -9.6621 11.315 9.6621 0 0 1 11.315 -9.6621" fill="url(#z)" opacity=".25652"/>
  <path transform="matrix(-.80628,.59154,-.45928,-.88829,0,0)" d="m19.374-680.7a6.419 7.2036 0 0 1 6.419 7.2036 6.419 7.2036 0 0 1 -6.419 7.2036 6.419 7.2036 0 0 1 -6.419 -7.2036 6.419 7.2036 0 0 1 6.419 -7.2036" fill="#1a1a1a"/>
  <path transform="matrix(-.80628,.59154,-.45928,-.88829,0,0)" d="m19.117-680.89a6.419 7.2036 0 0 1 6.419 7.2036 6.419 7.2036 0 0 1 -6.419 7.2036 6.419 7.2036 0 0 1 -6.419 -7.2036 6.419 7.2036 0 0 1 6.419 -7.2036" fill="url(#y)" opacity=".25652"/>
  <path d="m324.08 338.92c1.8419 13.525-5.4357 12.087-11.058 23.195-6.9936 13.807-22.532 31.591-17.228 57.578l38.237 63.849 34.047-73.204c-5.3526-13.44-0.55395-43.835-17.242-51.761 1.6272-6.6315-2.6244-15.066-3.5453-21.698l-23.211 2.0413z" fill="#b3b3b3"/>
  <path d="m346.3 339.35c-6.2735 1.3468-10.996 4.1477-22.719 0.36007 3.4276-7.074-20.78-16.385-20.122-17.402 14.188-21.81 24.298-22.514 24.298-22.514l10.594 0.09c15.552 1.4784 21.507 11.062 25.143 17.358-5.775 6.6426-17.339 12.977-17.193 22.113z" fill="#b3b3b3"/>
  <path d="m345.71 338.98c-5.8234 1.3357-10.22 4.1089-21.133 0.35315 3.1991-7.0096-19.326-16.236-18.71-17.242 13.198-21.611 22.601-22.308 22.601-22.308l9.8465 0.0762c14.465 1.4638 19.998 10.961 23.377 17.199-5.3664 6.5816-16.113 12.859-15.982 21.912z" fill="#ccc"/>
  <path d="m345.71 338.98c-5.8234 1.3357-10.22 4.1089-21.133 0.35315 3.1991-7.0096-19.326-16.236-18.71-17.242 13.198-21.611 22.601-22.308 22.601-22.308l9.8465 0.0762c14.465 1.4638 19.998 10.961 23.377 17.199-5.3664 6.5816-16.113 12.859-15.982 21.912z" fill="url(#x)" opacity=".52174"/>
  <path d="m345.71 338.98c-5.8234 1.3357-10.22 4.1089-21.133 0.35315 3.1991-7.0096-19.326-16.236-18.71-17.242 13.198-21.611 22.601-22.308 22.601-22.308l9.8465 0.0762c14.465 1.4638 19.998 10.961 23.377 17.199-5.3664 6.5816-16.113 12.859-15.982 21.912z" fill="url(#w)" opacity=".52174"/>
  <path d="m308.85 325c-1.8973-6.1634 8.2677-15.196 20.482-24.72" fill="none" stroke="#e6e6e6" stroke-width="1.4429"/>
  <path d="m314.26 327.89c3.6907-8.8307 11.501-18.095 21.646-27.606" fill="none" stroke="#e6e6e6" stroke-width="1.4429"/>
  <path d="m318.86 330.86c4.0646-8.1701 11.792-17.951 24.36-29.859" fill="none" stroke="#e6e6e6" stroke-width="1.4429"/>
  <path d="m323.54 334.83c3.8223-10.799 16.986-21.079 26.257-31.574" fill="none" stroke="#e6e6e6" stroke-width="1.4429"/>
  <path d="m326.61 340.15c6.689-13.056 18.904-22.251 28.605-33.196" fill="none" stroke="#e6e6e6" stroke-width="1.4429"/>
  <path d="m334.73 341.14c5.775-11.47 16.722-19.246 25.08-28.868" fill="none" stroke="#e6e6e6" stroke-width="1.4429"/>
  <path d="m324.08 338.92c1.8419 13.525-5.4357 12.087-11.058 23.195-6.9936 13.807-22.532 31.591-17.228 57.578l38.237 63.849 33.479-73.045c-5.3664-13.44 0-43.994-16.674-51.921 1.6272-6.6315-2.6244-15.066-3.5453-21.698l-23.211 2.0413z" fill="url(#v)" opacity=".43478"/>
  <path d="m350.48 352.08c-11.086 1.5843-19.409 4.2038-33.909 4.5092" fill="none" stroke="#e6e6e6" stroke-width="1.4429"/>
  <path d="m351.03 358.58c-11.093 1.5843-24.644 5.8283-39.144 6.1329" fill="none" stroke="#e6e6e6" stroke-width="1.4429"/>
  <path d="m357.51 365.61c-11.086 1.5829-34.747 6.1876-49.239 6.4923" fill="none" stroke="#e6e6e6" stroke-width="1.4429"/>
  <path d="m362.38 372.65c-11.086 1.5829-44.295 7.0892-58.788 7.3946" fill="none" stroke="#e6e6e6" stroke-width="1.4429"/>
  <path d="m363.83 379.68c-11.093 1.5836-50.617 7.45-65.117 7.7546" fill="none" stroke="#e6e6e6" stroke-width="1.4429"/>
  <path d="m365.45 387.8c-11.086 1.585-54.405 7.4514-68.898 7.756" fill="none" stroke="#e6e6e6" stroke-width="1.4429"/>
  <path d="m366.17 395.91c-11.086 1.5836-56.559 7.2699-71.058 7.5753" fill="none" stroke="#e6e6e6" stroke-width="1.4429"/>
  <path d="m367.08 403.49c-11.093 1.5836-57.293 7.45-71.785 7.7546" fill="none" stroke="#e6e6e6" stroke-width="1.4429"/>
  <path d="m368 410.14c-11.086 1.5843-57.133 8.9159-71.633 9.2205" fill="none" stroke="#e6e6e6" stroke-width="1.4429"/>
  <path d="m365.45 419.9c-11.086 1.5836-50.617 6.9085-65.11 7.2138" fill="none" stroke="#e6e6e6" stroke-width="1.4429"/>
  <path d="m365.45 419.9c-11.086 1.5836-50.617 6.9085-65.11 7.2138" fill="none" stroke="#e6e6e6" stroke-width="1.4429"/>
  <path d="m359.85 429.82c-11.079 1.5843-39.781 6.0076-54.28 6.3116" fill="none" stroke="#e6e6e6" stroke-width="1.4429"/>
  <path d="m355.56 438.72c-11.086 1.5843-29.782 5.8276-44.275 6.1322" fill="none" stroke="#e6e6e6" stroke-width="1.4429"/>
  <path d="m351.82 447.06c-11.093 1.5829-21.687 5.0278-36.187 5.3325" fill="none" stroke="#e6e6e6" stroke-width="1.4429"/>
  <path d="m344.41 463.38c-11.079 1.5836-6.3774 2.9872-20.87 3.2932" fill="none" stroke="#e6e6e6" stroke-width="1.4429"/>
  <path d="m348.49 455.22c-11.079 1.5843-14.534 4.0085-29.027 4.3132" fill="none" stroke="#e6e6e6" stroke-width="1.4429"/>
  <path d="m340.85 471.03c-11.093 1.5836-7.9077 2.7338-13.226 2.7829" fill="none" stroke="#e6e6e6" stroke-width="1.4429"/>
  <path d="m349.13 345.86c-7.7484 3.5674-13.004 4.2945-27.504 4.5992" fill="none" stroke="#e6e6e6" stroke-width="1.4429"/>
  <path d="m347.51 341.98c-7.7553 3.5674-8.5101 2.49-23.003 2.7961" fill="none" stroke="#e6e6e6" stroke-width="1.4429"/>
  <path d="m347.92 342c-13.198 3.134-16.958 1.3011-22.47 0.78661 6.592-0.79769 8.6694-2.1396 22.38-2.0732l0.13849 1.2852z" fill="url(#u)"/>
  <path d="m323.88 341.08c2.562-2.679 15.019-0.60243 22.906-0.72291-7.3883 1.0477-14.243 2.9948-22.276 2.9761l-0.6232-2.2546z" fill="url(#t)"/>
  <path d="m460.59 456.8c-14.243-1.9374-31.714 0.77761-49.509 3.9497l49.509-3.9497z" fill="#fff" opacity=".03043"/>
  <path transform="matrix(2.8858 0 0 2.8858 23928 276.91)" d="m-8189.8 43.74 14.849 25.986 2.1214 88.388-7.765 15.873c-0.92 1.5075-1.6753 1.3686-2.4881 1.8043-4.415-0.91417-4.1431-1.8099-7.8137-3.5747 9.8333-36.924 11.459-78.31 1.0962-128.48z" fill="#26252a" filter="url(#bd)"/>
  <path d="m336.15 479.14 6.1281 255.07-22.407 45.807c-2.659 4.3499-4.8332 3.9497-7.1875 5.2065-12.734-2.6382-8.3439-3.7793-18.938-8.8722 21.867-100.28 16.494-225.87-0.75476-372.86l43.153 75.649z" fill="#666"/>
  <path transform="matrix(2.8858 0 0 2.8858 23928 276.91)" d="m-8160.5 174.44-1.9358 1.4515c-0.518 0.15458-1.38 0.12617-2.4348-1.7531l-12.343-21.579c-0.3268-0.44872-0.473-1.56-0.551-2.921l-2.3796-74.083c-0.1968-1.0218 0.1976-1.4522 0.4419-2.0329l15.403-31.161c-5.9719 47.389-5.7791 95.013 3.7991 132.08z" fill="#26252a" filter="url(#be)"/>
  <path d="m380.99 781.33-5.5811 4.1879c-1.5026 0.44316-3.9885 0.36699-7.0283-5.0583l-35.626-62.271c-0.93479-1.2942-1.3572-4.5016-1.5788-8.4291l-6.8759-213.78c-0.6232-2.9484 0.62319-4.1906 1.281-5.867l44.455-89.922c-17.242 136.75-16.674 274.18 10.961 381.14z" fill="#666"/>
  <path transform="matrix(-.82279,.56835,-.48135,-.87653,0,0)" d="m-26.265-661.85a5.6718 6.1977 0 0 1 5.6718 6.1977 5.6718 6.1977 0 0 1 -5.6718 6.1977 5.6718 6.1977 0 0 1 -5.6718 -6.1977 5.6718 6.1977 0 0 1 5.6718 -6.1977" opacity=".28391"/>
  <path transform="matrix(-.83538,.54967,-.49945,-.86634,0,0)" d="m-13.238-659.98a5.6912 6.0853 0 0 1 5.6912 6.0853 5.6912 6.0853 0 0 1 -5.6912 6.0853 5.6912 6.0853 0 0 1 -5.6912 -6.0853 5.6912 6.0853 0 0 1 5.6912 -6.0853" fill="#808080"/>
  <path transform="matrix(-.83538,.54967,-.49945,-.86634,0,0)" d="m-13.481-660.15a5.6912 6.0853 0 0 1 5.6912 6.0853 5.6912 6.0853 0 0 1 -5.6912 6.0853 5.6912 6.0853 0 0 1 -5.6912 -6.0853 5.6912 6.0853 0 0 1 5.6912 -6.0853" fill="url(#s)" opacity=".25652"/>
  <path transform="matrix(-.82279,.56835,-.48135,-.87653,0,0)" d="m6.6666-721.15a5.6718 6.1977 0 0 1 5.6718 6.1977 5.6718 6.1977 0 0 1 -5.6718 6.1977 5.6718 6.1977 0 0 1 -5.6718 -6.1977 5.6718 6.1977 0 0 1 5.6718 -6.1977" opacity=".28391"/>
  <path transform="matrix(-.83538,.54967,-.49945,-.86634,0,0)" d="m20.897-719.95a5.6912 6.0853 0 0 1 5.6912 6.0853 5.6912 6.0853 0 0 1 -5.6912 6.0853 5.6912 6.0853 0 0 1 -5.6912 -6.0853 5.6912 6.0853 0 0 1 5.6912 -6.0853" fill="#808080"/>
  <path transform="matrix(-.83538,.54967,-.49945,-.86634,0,0)" d="m20.627-720.11a5.6912 6.0853 0 0 1 5.6912 6.0853 5.6912 6.0853 0 0 1 -5.6912 6.0853 5.6912 6.0853 0 0 1 -5.6912 -6.0853 5.6912 6.0853 0 0 1 5.6912 -6.0853" fill="url(#r)" opacity=".25652"/>
  <path transform="matrix(-.82279,.56835,-.48135,-.87653,0,0)" d="m35.663-779.71a5.6718 6.1977 0 0 1 5.6718 6.1977 5.6718 6.1977 0 0 1 -5.6718 6.1977 5.6718 6.1977 0 0 1 -5.6718 -6.1977 5.6718 6.1977 0 0 1 5.6718 -6.1977" opacity=".28391"/>
  <path transform="matrix(-.83538,.54967,-.49945,-.86634,0,0)" d="m51.056-779.08a5.6912 6.0853 0 0 1 5.6912 6.0853 5.6912 6.0853 0 0 1 -5.6912 6.0853 5.6912 6.0853 0 0 1 -5.6912 -6.0853 5.6912 6.0853 0 0 1 5.6912 -6.0853" fill="#808080"/>
  <path transform="matrix(-.83538,.54967,-.49945,-.86634,0,0)" d="m50.813-779.24a5.6912 6.0853 0 0 1 5.6912 6.0853 5.6912 6.0853 0 0 1 -5.6912 6.0853 5.6912 6.0853 0 0 1 -5.6912 -6.0853 5.6912 6.0853 0 0 1 5.6912 -6.0853" fill="url(#q)" opacity=".25652"/>
  <path transform="matrix(4.4852 0 0 2.8858 34570 276.91)" d="m-7624.6 155.78c-3.7779-29.903-3.5292-57.299-1.7647-86.11-1.2436 16.852-5.5959 53.261 1.7647 86.11z" filter="url(#bc)" opacity=".4"/>
  <path d="m278.94 254.69c0.41547-2.3024-0.20773-13.194 0.20774-17.429 0.13848-0.89948 4.0162 0.42238 4.4316 0.0762 24.942-20.946 86.029-25.761 96.63-3.1395 0.55395 1.1702 4.6394-2.1009 4.8609-0.75753 0.27697 1.8218 0.20773 14.82 0.13849 17.384-5.4287 16.839-26.52 21.691-54.703 21.412-22.975-0.2285-34.089-3.8929-51.483-17.537z" fill="url(#p)" opacity=".74348"/>
  <path d="m278.94 237.37c26.091-31.779 88.75-25.712 106.2-3.8756-5.4356 16.84-26.534 21.692-54.71 21.413-22.975-0.22851-34.089-3.8929-51.49-17.537z" fill="#7f7f7f"/>
  <path d="m278.94 237.37c26.091-31.779 88.75-25.712 106.2-3.8756-5.4356 16.84-26.534 21.692-54.71 21.413-22.975-0.22851-34.089-3.8929-51.49-17.537z" fill="url(#o)" opacity=".52174"/>
  <path d="m278.94 237.37c24.395 23.589 94.684 26.123 106.2-3.8756-5.4356 16.84-26.534 21.692-54.71 21.413-22.975-0.22851-36.644-5.6787-51.49-17.537z" fill="url(#n)" opacity=".31304" stroke="#000" stroke-width=".86572"/>
  <path d="m279.12 237.55c28.612-31.589 89.186-23.875 105.55-3.8486-7.88-11.4-26.998-18.073-55.208-17.849-22.996 0.18003-41.276 11.374-50.34 21.698z" fill="url(#m)" opacity=".31304" stroke="#000" stroke-width=".28857"/>
  <path d="m459.12 452.63c-13.973-0.83716-36.083 2.5703-52.162 6.9078l12.762-32.401 37.108-0.0762 2.292 25.557z" fill="#f2f2f2"/>
  <path d="m459.12 452.63c-13.973-0.83716-36.083 2.5703-52.162 6.9078l12.762-32.401 39.275-0.51241 0.13849 26.003z" fill="url(#an)"/>
 </g>
</svg>
